<?xml version="1.0" encoding="utf-8" ?>	<!-- Generator: Assembly 1.8 - http://assemblyapp.co -->	<svg version="1.1" xmlns="http://www.w3.org/2000/svg" xmlns:xlink="http://www.w3.org/1999/xlink" width="2048.00" height="2048.00" viewBox="0 0 2048.0 2048.0">		<g id="document" transform="matrix(1,0,0,1,1024.0,1024.0)">			<g>				<path d="M590.174,253.87 L-94.4228,253.87 C-154.584,253.87 -202.299,226.345 -202.299,192.964 L-202.299,-192.964 C-202.299,-226.931 -153.547,-253.87 -94.4228,-253.87 L590.174,-253.87 C650.335,-253.87 698.049,-226.345 698.049,-192.964 L698.049,193.55 C697.012,226.345 649.298,253.87 590.174,253.87 Z " fill="#0b437f" fill-opacity="1.00" stroke-width="6.52" stroke="#7fa7d9" stroke-linecap="square" stroke-linejoin="miter" />				<path d="M659.09,-429.249 L-101.341,-429.249 L-101.341,-440.503 C-101.341,-520.887 -167.256,-586.802 -247.639,-586.802 L-655.989,-586.802 C-736.373,-586.802 -802.288,-520.887 -802.288,-440.503 L-802.288,440.503 C-802.288,520.887 -736.373,586.802 -655.989,586.802 L-376.253,586.802 L-376.253,488.733 C-390.723,477.48 -400.369,459.795 -400.369,440.503 C-400.369,405.134 -373.038,377.804 -337.669,377.804 C-302.3,377.804 -274.97,405.134 -274.97,440.503 C-274.97,459.795 -284.616,477.48 -299.085,488.733 L-299.085,586.802 L327.909,586.802 L327.909,488.733 C313.44,477.48 303.793,459.795 303.793,440.503 C303.793,405.134 331.124,377.804 366.493,377.804 C401.862,377.804 429.192,405.134 429.192,440.503 C429.192,459.795 419.546,477.48 405.077,488.733 L405.077,586.802 L655.875,586.802 C736.258,586.802 802.173,520.887 802.173,440.503 L802.173,-284.559 C805.388,-364.942 739.474,-429.249 659.09,-429.249 Z M-429.307,-311.889 C-350.531,-311.889 -286.224,-247.582 -286.224,-168.806 C-286.224,-90.0299 -350.531,-25.7228 -429.307,-25.7228 C-508.083,-25.7228 -572.39,-90.0299 -572.39,-168.806 C-572.39,-249.19 -508.083,-311.889 -429.307,-311.889 Z M-623.836,284.559 L-623.836,181.667 C-623.836,101.284 -573.998,32.1535 -504.868,3.21535 C-482.36,12.8614 -456.637,19.2921 -430.914,19.2921 C-405.192,19.2921 -379.469,14.4691 -356.961,3.21535 C-328.023,16.0768 -297.477,41.7996 -281.401,59.484 C-255.678,90.0299 -249.247,112.537 -244.424,130.222 C-239.601,147.906 -236.386,163.983 -236.386,183.275 L-236.386,286.166 L-623.836,286.166 L-623.836,284.559 Z M594.783,242.759 L-75.6181,242.759 C-98.1255,242.759 -114.202,225.075 -114.202,204.175 C-114.202,181.667 -96.5178,165.591 -75.6181,165.591 L594.783,165.591 C617.29,165.591 634.975,183.275 634.975,204.175 C634.975,225.075 617.29,242.759 594.783,242.759 Z M-117.418,32.1535 C-117.418,9.64606 -99.7332,-6.4307 -78.8334,-6.4307 L589.96,-6.4307 C612.467,-6.4307 628.544,11.2537 628.544,32.1535 C628.544,54.661 610.86,70.7377 589.96,70.7377 L-78.8334,70.7377 C-99.7332,70.7377 -117.418,53.0533 -117.418,32.1535 Z M594.783,-104.499 L-75.6181,-104.499 C-98.1255,-104.499 -114.202,-122.183 -114.202,-143.083 C-114.202,-165.591 -96.5178,-181.667 -75.6181,-181.667 L594.783,-181.667 C617.29,-181.667 634.975,-163.983 634.975,-143.083 C634.975,-122.183 617.29,-104.499 594.783,-104.499 Z " fill="#0b437f" fill-opacity="1.00" stroke-width="6.52" stroke="#000000" stroke-linecap="square" stroke-linejoin="miter" />			</g>			<g>				<path d="M82.2009,-279.244 L82.2009,-341.725 L-106.492,-341.725 L-106.492,95.6417 L90.9482,95.6417 L90.9482,33.1607 L-28.3905,33.1607 L-28.3905,-109.296 L50.9604,-109.296 L50.9604,-171.777 L-28.3905,-171.777 L-28.3905,-279.244 L82.2009,-279.244 Z M337.123,-216.763 C337.123,-286.742 301.509,-341.725 227.157,-341.725 L105.319,-341.725 L105.319,95.6417 L182.795,95.6417 L182.795,-80.5547 C187.794,-80.5547 219.659,-79.9299 224.658,-79.9299 C283.39,-79.9299 337.123,-126.166 337.123,-216.763 Z M182.795,-146.785 L182.795,-279.244 L224.033,-279.244 C255.273,-279.244 263.396,-251.753 263.396,-216.763 C263.396,-153.033 249.025,-146.785 198.416,-146.785 L182.795,-146.785 Z M429.595,-341.725 L351.494,-341.725 L351.494,95.6417 L429.595,95.6417 L429.595,-341.725 Z M688.267,-214.889 L688.267,-249.253 C688.267,-293.615 652.652,-347.349 573.926,-347.349 C487.703,-347.349 455.212,-293.615 455.212,-249.253 L455.212,3.79466 C455.212,47.5314 487.703,101.265 573.926,101.265 C652.652,101.265 688.267,47.5314 688.267,3.16985 L688.267,-31.1947 L609.541,-31.1947 L609.541,3.16985 C609.541,16.2909 596.42,38.784 573.926,38.784 C546.435,38.784 534.563,16.2909 534.563,3.16985 L534.563,-249.253 C534.563,-262.374 546.435,-284.868 573.926,-284.868 C596.42,-284.868 609.541,-262.374 609.541,-249.253 L609.541,-214.889 L688.267,-214.889 Z " fill="#ffffff" fill-opacity="1.00" stroke-width="7.38" stroke="#000000" stroke-linecap="square" stroke-linejoin="miter" />				<path d="M-126.024,266.735 L-96.5385,266.735 L-96.5385,281.478 C-96.5385,294.966 -94.0291,304.689 -89.3241,310.649 C-88.3831,312.217 -86.501,313.472 -83.678,315.04 C-80.8549,316.609 -76.7772,317.55 -70.8175,317.55 C-59.5253,317.55 -53.2519,311.904 -49.4878,305.003 C-46.0375,298.102 -45.4101,289.319 -45.4101,283.046 C-45.4101,272.068 -49.1742,264.853 -54.5066,259.521 C-59.839,254.502 -67.0534,251.052 -73.6405,248.229 L-79.2866,245.719 C-85.8737,242.896 -97.1658,238.191 -107.203,228.467 C-119.75,216.234 -126.024,200.864 -126.024,182.044 C-126.024,162.283 -120.691,145.658 -110.654,134.052 C-100.93,122.76 -87.1284,115.859 -70.8175,115.859 C-48.2332,115.859 -35.6863,125.583 -29.0992,134.052 C-20.0028,145.658 -15.6114,161.655 -15.6114,182.044 L-15.6114,196.786 L-45.4101,196.786 L-45.4101,182.044 C-45.4101,164.165 -49.4878,154.441 -54.8202,150.049 C-60.1527,145.658 -66.7397,145.658 -70.8175,145.658 C-83.0506,145.658 -89.0104,152.245 -92.4608,160.401 C-96.2248,168.556 -96.5385,177.966 -96.5385,182.044 C-96.5385,193.022 -92.7745,200.237 -87.442,205.883 C-82.1096,211.529 -74.8952,215.607 -67.3671,218.43 L-62.3484,220.625 C-56.3886,223.135 -45.0964,227.213 -35.059,236.936 C-22.1984,248.856 -15.6114,264.226 -15.6114,283.046 C-15.6114,318.491 -35.3726,347.035 -70.8175,347.035 C-107.517,347.035 -126.024,322.882 -126.024,281.478 L-126.024,266.735 Z M69.7072,200.864 L116.758,116.173 L150.634,116.173 L84.4497,235.368 L84.4497,347.349 L54.9646,347.349 L54.9646,235.368 L-10.9063,116.173 L22.9702,116.173 L69.7072,200.864 Z M157.221,266.735 L186.707,266.735 L186.707,281.478 C186.707,294.966 189.216,304.689 193.921,310.649 C194.862,312.217 196.744,313.472 199.567,315.04 C202.39,316.609 206.468,317.55 212.428,317.55 C223.72,317.55 229.993,311.904 233.757,305.003 C237.208,298.102 237.835,289.319 237.835,283.046 C237.835,272.068 234.071,264.853 228.738,259.521 C223.406,254.502 216.192,251.052 209.605,248.229 L203.958,245.719 C197.371,242.896 186.079,238.191 176.042,228.467 C163.495,216.234 157.221,200.864 157.221,182.044 C157.221,162.283 162.554,145.658 172.591,134.052 C182.315,122.76 196.117,115.859 212.428,115.859 C235.012,115.859 247.559,125.583 254.146,134.052 C263.242,145.658 267.634,161.655 267.634,182.044 L267.634,196.786 L237.835,196.786 L237.835,182.044 C237.835,164.165 233.757,154.441 228.425,150.049 C223.092,145.658 216.505,145.658 212.428,145.658 C200.194,145.658 194.235,152.245 190.784,160.401 C187.02,168.556 186.707,177.966 186.707,182.044 C186.707,193.022 190.471,200.237 195.803,205.883 C201.135,211.529 208.35,215.607 215.878,218.43 L220.897,220.625 C226.856,223.135 238.149,227.213 248.186,236.936 C261.047,248.856 267.634,264.226 267.634,283.046 C267.634,318.491 247.872,347.035 212.428,347.035 C175.728,347.035 157.221,322.882 157.221,281.478 L157.221,266.735 Z M281.749,115.859 L412.55,115.859 L412.55,145.658 L362.049,145.658 L362.049,347.035 L332.25,347.035 L332.25,145.658 L281.749,145.658 L281.749,115.859 Z M522.021,116.173 L522.021,145.658 L455.836,145.658 L455.836,216.861 L522.021,216.861 L522.021,246.347 L455.836,246.347 L455.836,317.864 L522.021,317.864 L522.021,347.349 L426.351,347.349 L426.351,116.173 L522.021,116.173 Z M604.516,347.035 L572.522,236.309 L572.522,347.035 L543.037,347.035 L543.037,115.859 L569.072,115.859 L615.809,278.655 L662.232,115.859 L688.267,115.859 L688.267,347.035 L658.782,347.035 L658.782,236.309 L626.787,347.035 L604.516,347.035 Z " fill="#ffffff" fill-opacity="1.00" stroke-width="7.38" stroke="#000000" stroke-linecap="square" stroke-linejoin="miter" />			</g>			<path d="M-373.053,201.601 L-420.786,238.815 C-424.863,241.954 -429.789,241.954 -433.696,238.815 L-481.429,201.601 C-485.336,198.462 -487.035,192.185 -485.166,186.581 L-431.997,21.8054 C-430.129,15.9766 -423.844,15.9766 -421.975,21.8054 L-369.316,186.581 C-367.447,192.185 -369.146,198.462 -373.053,201.601 Z " fill="#e60000" fill-opacity="1.00" stroke-width="4.15" stroke="#000000" stroke-linecap="square" stroke-linejoin="miter" />			<path d="M-322.886,-452.248 C-337.567,-457.225 -353.243,-448.765 -358.469,-434.333 L-393.802,-326.342 C-416.446,-331.318 -439.338,-331.318 -461.732,-326.342 L-497.066,-434.084 C-501.544,-448.765 -517.221,-457.225 -531.901,-451.999 C-546.582,-446.774 -555.042,-431.098 -549.817,-416.417 L-512.742,-302.952 C-519.46,-297.975 -526.178,-292.75 -532.399,-286.529 C-535.136,-283.792 -535.136,-279.313 -532.399,-276.327 C-529.662,-273.59 -525.183,-273.59 -522.197,-276.327 C-469.197,-329.327 -383.849,-329.327 -331.844,-276.327 C-330.6,-275.083 -328.361,-274.088 -326.868,-274.088 C-325.126,-274.088 -323.384,-274.585 -321.891,-276.327 C-319.154,-279.064 -319.154,-283.543 -321.891,-286.529 C-328.112,-292.75 -334.83,-298.473 -341.549,-302.952 L-304.473,-416.417 C-299.746,-431.347 -307.708,-447.023 -322.886,-452.248 Z " fill="#ffffff" fill-opacity="1.00" stroke-width="5.44" stroke="#000000" stroke-linecap="square" stroke-linejoin="miter" />			<path d="M-319.248,-306.535 C-365.136,-306.535 -403.112,-271.724 -408.254,-226.628 L-446.23,-226.628 C-451.373,-272.119 -488.953,-306.535 -535.236,-306.535 C-584.684,-306.535 -625.033,-266.977 -625.033,-216.738 C-625.033,-166.499 -585.079,-126.941 -535.236,-126.941 C-489.349,-126.941 -451.373,-161.752 -446.23,-206.848 L-408.254,-206.848 C-403.112,-161.356 -365.531,-126.941 -319.248,-126.941 C-270.196,-126.941 -229.451,-166.499 -229.451,-216.738 C-229.451,-266.977 -269.405,-306.535 -319.248,-306.535 Z M-534.445,-146.72 C-572.421,-146.72 -604.463,-177.575 -604.463,-216.738 C-604.463,-255.901 -573.608,-286.756 -534.445,-286.756 C-495.282,-286.756 -464.427,-255.505 -464.427,-216.738 C-464.427,-177.971 -496.469,-146.72 -534.445,-146.72 Z M-319.248,-146.72 C-357.224,-146.72 -389.266,-177.575 -389.266,-216.738 C-389.266,-255.901 -358.411,-286.756 -319.248,-286.756 C-281.272,-286.756 -249.23,-255.505 -249.23,-216.738 C-249.23,-177.971 -280.481,-146.72 -319.248,-146.72 Z " fill="#000000" fill-opacity="1.00" />		</g>	</svg>